<?xml version="1.0" encoding="UTF-8"?>
<svg width="1024px" height="767px" viewBox="0 0 1024 767" version="1.1" xmlns="http://www.w3.org/2000/svg" xmlns:xlink="http://www.w3.org/1999/xlink">
    <title>A2</title>
    <g id="A2" stroke="none" stroke-width="1" fill="none" fill-rule="evenodd">
        <rect fill="#FFFFFF" x="0" y="0" width="1024" height="767"></rect>
        <g id="Start/end" transform="translate(292.000000, 54.000000)">
            <rect id="Rectangle" fill="#95BFB3" x="0" y="0" width="111" height="78" rx="10"></rect>
            <text id="Start" font-family="Montserrat-SemiBold, Montserrat" font-size="12" font-weight="500" fill="#FFFFFF">
                <tspan x="26.45" y="45">Menu bar</tspan>
            </text>
        </g>
        <g id="Level-1" transform="translate(421.000000, 169.000000)">
            <rect id="Rectangle" fill-opacity="0.6" fill="#95BFB3" x="0" y="0" width="111" height="78"></rect>
            <text id="Process" font-family="Montserrat-SemiBold, Montserrat" font-size="12" font-weight="500" fill="#4F4F4F">
                <tspan x="12.422" y="45">Plan your visit</tspan>
            </text>
        </g>
        <g id="Level-1-Copy" transform="translate(421.000000, 280.000000)">
            <rect id="Rectangle" fill-opacity="0.6" fill="#95BFB3" x="0" y="0" width="111" height="78"></rect>
            <text id="Process" font-family="Montserrat-SemiBold, Montserrat" font-size="12" font-weight="500" fill="#4F4F4F">
                <tspan x="28.136" y="45">Calendar</tspan>
            </text>
        </g>
        <g id="Level-1-Copy-2" transform="translate(421.000000, 386.000000)">
            <rect id="Rectangle" fill-opacity="0.6" fill="#95BFB3" x="0" y="0" width="111" height="78"></rect>
            <text id="Process" font-family="Montserrat-SemiBold, Montserrat" font-size="12" font-weight="500" fill="#4F4F4F">
                <tspan x="27.968" y="45">Favorites</tspan>
            </text>
        </g>
        <g id="Level-1-Copy-3" transform="translate(421.000000, 492.000000)">
            <rect id="Rectangle" fill-opacity="0.6" fill="#95BFB3" x="0" y="0" width="111" height="78"></rect>
            <text id="Process" font-family="Montserrat-SemiBold, Montserrat" font-size="12" font-weight="500" fill="#4F4F4F">
                <tspan x="22.658" y="45">Contact us</tspan>
            </text>
        </g>
        <g id="Group" transform="translate(347.500000, 132.000000)" fill="#4F4F4F" fill-rule="nonzero">
            <g id="Curved-arrow">
                <path id="Line-2" d="M1,-1 L1,62.5 C1,72.6187028 20.309647,77.4676991 59.0927733,76.3634745 L59.197,76.36 L58.9305436,70.3821605 L73.2291667,76.75 L59.5557213,84.3681948 L59.286,78.358 L59.1175241,78.3636097 C19.4980657,79.4905844 -0.592031479,74.5436428 -0.993849638,62.8597746 L-1,62.5 L-1,-1 L1,-1 Z"></path>
            </g>
        </g>
        <g id="Group" transform="translate(567.500000, 210.000000)" fill="#4F4F4F" fill-rule="nonzero">
            <g id="Curved-arrow">
                <path id="Line-2" d="M1,-1 L1,92.1474359 C1,107.027049 13.9345054,114.09102 40.387239,113.219779 L39.9176244,107.285459 L54.4270833,113.157051 L41.0241338,121.241663 L40.5457059,115.215531 C13.3224984,116.125609 -0.714165694,108.639638 -0.995679499,92.6411445 L-1,92.1474359 L-1,-1 L1,-1 Z"></path>
            </g>
        </g>
        <g id="Group" transform="translate(567.500000, 296.000000)" fill="#4F4F4F" fill-rule="nonzero">
            <g id="Curved-arrow">
                <path id="Line-2" d="M1,-1 L1,108.173077 C1,125.811105 13.9405446,134.108096 40.388371,133.083936 L39.8381654,127.165253 L54.4270833,132.836538 L41.1367045,141.104902 L40.5744653,135.078082 C13.3267514,136.15256 -0.714079961,127.36931 -0.995678173,108.747717 L-1,108.173077 L-1,-1 L1,-1 Z"></path>
            </g>
        </g>
        <g id="Group" transform="translate(567.500000, 386.000000)" fill="#4F4F4F" fill-rule="nonzero">
            <g id="Curved-arrow">
                <path id="Line-2" d="M1,-1 L1,116.185897 C1,135.200824 13.9471342,144.116726 40.3899204,143.015954 L39.7994944,137.105497 L54.4270833,142.676282 L41.1939023,151.035882 L40.5898384,145.009202 C13.3259855,146.167084 -0.714099592,136.737622 -0.995678518,116.801101 L-1,116.185897 L-1,-1 L1,-1 Z"></path>
            </g>
        </g>
        <g id="Group" transform="translate(567.500000, 492.000000)" fill="#4F4F4F" fill-rule="nonzero">
            <g id="Curved-arrow">
                <path id="Line-2" d="M1,-1 L1,116.185897 C1,135.200824 13.9471342,144.116726 40.3899204,143.015954 L39.7994944,137.105497 L54.4270833,142.676282 L41.1939023,151.035882 L40.5898384,145.009202 C13.3259855,146.167084 -0.714099592,136.737622 -0.995678518,116.801101 L-1,116.185897 L-1,-1 L1,-1 Z"></path>
            </g>
        </g>
        <g id="Group" transform="translate(347.500000, 383.000000)" fill="#4F4F4F" fill-rule="nonzero">
            <g id="Curved-arrow">
                <path id="Line-2" d="M1,-1 L1,118.589744 C1,138.772971 20.172266,147.908061 59.1269484,145.789739 L59.191,145.785 L58.6868989,139.838348 L73.2291667,145.628205 L59.8719201,153.788105 L59.361,147.779 L59.2161038,147.787797 C19.6788594,149.93127 -0.588389138,140.482913 -0.993794501,119.24361 L-1,118.589744 L-1,-1 L1,-1 Z"></path>
            </g>
        </g>
        <g id="Group" transform="translate(347.500000, 277.000000)" fill="#4F4F4F" fill-rule="nonzero">
            <g id="Curved-arrow">
                <path id="Line-2" d="M1,-1 L1,118.589744 C1,138.772971 20.172266,147.908061 59.1269484,145.789739 L59.191,145.785 L58.6868989,139.838348 L73.2291667,145.628205 L59.8719201,153.788105 L59.361,147.779 L59.2161038,147.787797 C19.6788594,149.93127 -0.588389138,140.482913 -0.993794501,119.24361 L-1,118.589744 L-1,-1 L1,-1 Z"></path>
            </g>
        </g>
        <g id="Group" transform="translate(347.500000, 181.000000)" fill="#4F4F4F" fill-rule="nonzero">
            <g id="Curved-arrow">
                <path id="Line-2" d="M1,-1 L1,108.173077 C1,126.490485 20.1769363,134.826133 59.1200247,132.896504 L59.191,132.892 L58.7303495,126.938717 L73.2291667,132.836538 L59.811619,140.896899 L59.346,134.887 L59.1984472,134.895033 C19.6659472,136.848095 -0.588648189,128.232148 -0.993798417,108.772178 L-1,108.173077 L-1,-1 L1,-1 Z"></path>
            </g>
        </g>
        <g id="Level-2" transform="translate(622.000000, 169.000000)">
            <rect id="Rectangle" fill-opacity="0.4" fill="#95BFB3" x="0" y="0" width="111" height="78"></rect>
            <text id="Process" font-family="Montserrat-SemiBold, Montserrat" font-size="12" font-weight="500" fill="#4F4F4F">
                <tspan x="31.274" y="45">Exhibits</tspan>
            </text>
        </g>
        <g id="Level-2-Copy" transform="translate(622.000000, 277.000000)">
            <rect id="Rectangle" fill-opacity="0.4" fill="#95BFB3" x="0" y="0" width="111" height="78"></rect>
            <text id="Process" font-family="Montserrat-SemiBold, Montserrat" font-size="12" font-weight="500" fill="#4F4F4F">
                <tspan x="17.57" y="45">Garden map</tspan>
            </text>
        </g>
        <g id="Level-2-Copy-2" transform="translate(622.000000, 386.000000)">
            <rect id="Rectangle" fill-opacity="0.4" fill="#95BFB3" x="0" y="0" width="111" height="78"></rect>
            <text id="Process" font-family="Montserrat-SemiBold, Montserrat" font-size="12" font-weight="500" fill="#4F4F4F">
                <tspan x="16.868" y="45">Getting here</tspan>
            </text>
        </g>
        <g id="Level-2-Copy-3" transform="translate(622.000000, 492.000000)">
            <rect id="Rectangle" fill-opacity="0.4" fill="#95BFB3" x="0" y="0" width="111" height="78"></rect>
            <text id="Hours-of-operation" font-family="Montserrat-SemiBold, Montserrat" font-size="12" font-weight="500" fill="#4F4F4F">
                <tspan x="29.352" y="36">Hours of </tspan>
                <tspan x="25.41" y="51">operation</tspan>
            </text>
        </g>
        <g id="Level-2-Copy-4" transform="translate(622.000000, 598.000000)">
            <rect id="Rectangle" fill-opacity="0.4" fill="#95BFB3" x="0" y="0" width="111" height="78"></rect>
            <text id="Process" font-family="Montserrat-SemiBold, Montserrat" font-size="12" font-weight="500" fill="#4F4F4F">
                <tspan x="4.628" y="45">Purchase tickets</tspan>
            </text>
        </g>
        <g id="Group" transform="translate(532.000000, 206.000000)" fill="#4F4F4F" fill-rule="nonzero">
            <g id="Arrow">
                <path id="Line" d="M75.6153846,-5 L89.6153846,2 L75.6153846,9 L75.615,3 L-0.615384615,3 L-0.615384615,1 L75.615,1 L75.6153846,-5 Z"></path>
            </g>
        </g>
        <text id="1.0" font-family="Montserrat-Medium, Montserrat" font-size="12" font-weight="400" fill="#4F4F4F">
            <tspan x="468.488" y="166">1.0</tspan>
        </text>
        <text id="1.1" font-family="Montserrat-Medium, Montserrat" font-size="12" font-weight="400" fill="#4F4F4F">
            <tspan x="671.276" y="166">1.1</tspan>
        </text>
        <text id="1.2" font-family="Montserrat-Medium, Montserrat" font-size="12" font-weight="400" fill="#4F4F4F">
            <tspan x="669.914" y="274">1.2</tspan>
        </text>
        <text id="1.4" font-family="Montserrat-Medium, Montserrat" font-size="12" font-weight="400" fill="#4F4F4F">
            <tspan x="669.458" y="489">1.4</tspan>
        </text>
        <text id="1.5" font-family="Montserrat-Medium, Montserrat" font-size="12" font-weight="400" fill="#4F4F4F">
            <tspan x="669.974" y="595">1.5</tspan>
        </text>
        <text id="1.3" font-family="Montserrat-Medium, Montserrat" font-size="12" font-weight="400" fill="#4F4F4F">
            <tspan x="669.926" y="383">1.3</tspan>
        </text>
        <text id="2.0" font-family="Montserrat-Medium, Montserrat" font-size="12" font-weight="400" fill="#4F4F4F">
            <tspan x="467.204" y="277">2.0</tspan>
        </text>
        <text id="3.0" font-family="Montserrat-Medium, Montserrat" font-size="12" font-weight="400" fill="#4F4F4F">
            <tspan x="467.276" y="384">3.0</tspan>
        </text>
        <text id="4.0" font-family="Montserrat-Medium, Montserrat" font-size="12" font-weight="400" fill="#4F4F4F">
            <tspan x="467.574" y="490">4.0</tspan>
        </text>
    </g>
</svg>